<svg xmlns="http://www.w3.org/2000/svg" viewBox="0 0 500 500"><g id="freepik--Shadows--inject-2"><ellipse id="freepik--Shadow--inject-2" cx="435.94" cy="370.25" rx="41.53" ry="23.98" style="fill:#e0e0e0"></ellipse><path id="freepik--shadow--inject-2" d="M200.57,451.64,49.4,364.36c-5.74-3.32-5.74-8.74,0-12.06L278.92,219.81a9.51,9.51,0,0,1,8.6,0L447.9,312.4c.68.4.68,1,0,1.42L209.17,451.64A9.57,9.57,0,0,1,200.57,451.64Z" style="fill:#e0e0e0"></path></g><g id="freepik--Character--inject-2"><g id="freepik--character--inject-2"><path id="freepik--shadow--inject-2" d="M435.9,298.69a12.82,12.82,0,0,0-5.32-6.82L400,274.21a31.09,31.09,0,0,0-5.7-.37c-6.73.21-13.15,2.82-19.18,5.81-13.69,6.81-27.68,11.65-40.29,20.42-1.6,1.12-6,3.79-3.48,6.53a8.12,8.12,0,0,0,5.43,2.06c4-.31,11.9-6.68,10.65-4.8a6.84,6.84,0,0,0-1.07,3.62,2.63,2.63,0,0,0,1.51,2.39c1.1.37,1.58-1.88,2.06-3.15a11.8,11.8,0,0,1,4.57-5.69,15.74,15.74,0,0,1,10.94-1.91,47.11,47.11,0,0,1,10.78,3.48c5.74,2.38,9.6,3.7,15.05,6.67,2.52,1.37,9.59,5.78,10,6.26.61.73.48,5.89.55,6.83l.36,5.27,28.42-16.41a12.62,12.62,0,0,0,4.85-5.62c0-.23.08-.47.11-.7A31.5,31.5,0,0,0,435.9,298.69Z" style="opacity:0.15"></path><path d="M414.33,332.12c-.8.67-1.72,1.46-1.73,2.41a9.62,9.62,0,0,0,2,5.65c1.75,2.37,2.6,6.6,2.66,9.42s-.46,9.93,2.76,13.1,11.6,5.51,12.17.35-7.45-26.16-7.45-26.16Z" style="fill:#263238"></path><path d="M418.7,336a77.21,77.21,0,0,1,2.23,11.48c.42,4.24,1.32,7.3,3.31,8.65s5.17,1.49,4.3-1.46-3.83-17.74-3.83-17.74Z" style="fill:#9a4a4d"></path><path d="M399.14,262.38s15.95,9.54,23.64,14.82,15,10.43,16.22,14.14c1.3,3.93-.11,12.78-1.95,21.24s-5.39,23.64-5.39,23.64l-20-38.48-22.29-18.52Z" style="fill:#b16668"></path><path d="M409,294.89l-19.94-13.61,10.09-18.9s14.78,8.5,25.69,15.8c8.84,5.91,15.16,10.51,15.21,14.37s-1.42,17.12-3.63,22.62c0,0-8.72,2.86-16.36-.53Z" style="fill:#F6A091"></path><path d="M409,294.89l-19.94-13.61,10.09-18.9s14.78,8.5,25.69,15.8c8.84,5.91,15.16,10.51,15.21,14.37s-1.42,17.12-3.63,22.62c0,0-8.72,2.86-16.36-.53Z" style="fill:#fff;opacity:0.6000000000000001"></path><path d="M426.47,302.8c-1.76-5.75-6.94-9.27-11.44-12.78-3.57-2.8-12.17-9.08-15.68-11.67a9.31,9.31,0,0,0,.61-5.58c-1.88,4.93-3.16,6.08-3.16,6.08l22.39,20.89,13.54,32.05S428.23,308.54,426.47,302.8Z" style="opacity:0.15"></path><path d="M430.75,363.28c-.74.38-.83,2.11-.9,3.37s-1.16,2.8.45,4.94,4.66,2.64,6.85,5.55,5.47,8.21,12.26,9.31,11.81-1.37,13-3.43-.06-3.91-4.48-6.15c-4.69-2.39-6-3.1-6-3.1Z" style="fill:#263238"></path><path d="M437.31,349.11s3.69,8.83,5.86,12.86a47.51,47.51,0,0,0,9.12,11.26c.79.76,2.56,2.14,3.21,2.75a1.29,1.29,0,0,1,.05,2c-1.32,1.53-7.47,2.45-11.18.18s-7.57-6.88-9.84-8.77l-3-2.53a2.81,2.81,0,0,1-.95-2.6c0-.27.1-.6.15-1,.29-2-3.12-10-3.12-10Z" style="fill:#b16668"></path><path d="M361.41,267c-.92,5.48-2.66,11.07.62,17.79,3.17,6.5,12.24,11.81,22.17,16.41,8.22,3.81,20.32,9.28,22.75,10.09s2.8,2.2,2.89,6.67,2.32,11.6,8.12,20.23a214.64,214.64,0,0,1,11.52,19.84s7,.77,10.14-3.58c0,0-14.36-47.87-16.89-53.49s-26.14-22.32-26.14-22.32a31.13,31.13,0,0,0,2.55-16.28Z" style="fill:#b16668"></path><path d="M399.87,309.15s-18-7.58-28.74-14.28c-14.79-9.18-12-18-10.5-27.49l38.51-5c2.27,10.32-2.14,16.37-2.14,16.37l13.75,10.38c7.16,5.51,12,8.6,13.45,13.15s6.11,21.7,6.11,21.7a27.68,27.68,0,0,1-17,6.09s-3.35-5.43-3.89-9.38.33-7.07-1.29-7.93S404.37,311.11,399.87,309.15Z" style="fill:#F6A091"></path><path d="M399.87,309.15s-18-7.58-28.74-14.28c-14.79-9.18-12-18-10.5-27.49l38.51-5c2.27,10.32-2.14,16.37-2.14,16.37l13.75,10.38c7.16,5.51,12,8.6,13.45,13.15s6.11,21.7,6.11,21.7a27.68,27.68,0,0,1-17,6.09s-3.35-5.43-3.89-9.38.33-7.07-1.29-7.93S404.37,311.11,399.87,309.15Z" style="fill:#fff;opacity:0.6000000000000001"></path><path d="M385.49,212.51a43.09,43.09,0,0,1,8.49,0,15.37,15.37,0,0,1,5.81,2.36C404.5,218,415.5,227,422.34,232.15c0,0,5.76-2.89,9.66-5.27,3.49-2.13,5.33,12-1,15.94-6.92,4.31-7.83,4.3-12.83,1.75-5.26-2.68-15.76-9.38-20.09-12.1Z" style="fill:#b16668"></path><path d="M422.34,232.15c-2.33,1.41-3.69,5.58-3.69,5.58s-.41-4.42,2.82-6.24Z" style="fill:#9a4a4d"></path><path d="M444.84,216.55h0l-1-.7h0a1.07,1.07,0,0,0-1,0l-9.92,4a3.78,3.78,0,0,0-2.05,2.42L426,244.39a1,1,0,0,0,.26,1.07h0l1.07.73h0a1.08,1.08,0,0,0,1,0l9.92-4a3.81,3.81,0,0,0,2.05-2.42c1-4.35,3.94-17.78,4.91-22.13A1,1,0,0,0,444.84,216.55Z" style="fill:#455a64"></path><path d="M432.91,221.27a3.68,3.68,0,0,0-1,1.7L427,245.09a1,1,0,0,0,.22,1.06l-1-.68h0a1,1,0,0,1-.26-1.07l4.9-22.13a3.72,3.72,0,0,1,.92-1.61Z" style="fill:#263238"></path><path d="M427,245.1,431.9,223a3.82,3.82,0,0,1,2.06-2.42l9.92-4c.92-.37,1.49.12,1.28,1.09-1,4.35-3.94,17.78-4.91,22.13a3.81,3.81,0,0,1-2.05,2.42l-9.92,4C427.36,246.55,426.79,246.06,427,245.1Z" style="fill:#37474f"></path><path d="M444.05,222.64c2-.71,3.35,1.36,3.44,5.15s-1.68,10.93-7.62,9.55c-2.31-.53-4.18-4.2-1.92-6a39,39,0,0,0,5.24-4.8Z" style="fill:#b16668"></path><path d="M401.77,263.88,397.13,259l-1.95-5.19-1-9.61c5.36-3.47,7.32-10,5.2-15.07a33.52,33.52,0,0,0-6-9.41c-4.2-4.85-6.3-6.47-7.9-7.25-2.2-.18-3.84-.15-3.84-.15s-9.15.73-12.95,1.27a64.19,64.19,0,0,0-6.62,1.28c2.88,4.05,4.34,11.3,2.27,17.48a10.22,10.22,0,0,1-7.27,7.1s.59,9.22.93,13.84c.55,7.33.35,13.33,1.2,23.69,8.6,3.17,22.4.9,32.07-4.21C400.79,267.79,401.77,263.88,401.77,263.88Z" style="fill:#37474f"></path><path d="M386,244.37a15.92,15.92,0,0,1-18.13-.63,10.89,10.89,0,0,0,8.9,5.57C384.46,249.59,386,244.37,386,244.37Z" style="fill:#263238"></path><path d="M386.13,169.17a4.87,4.87,0,0,1-1.55-.21,28.2,28.2,0,0,0-6.1-1.29A22,22,0,0,0,368.16,169a19.31,19.31,0,0,0-11.46,12.8c-1.78,6.62.52,12.8,4.32,17.71,2,2.57,5.64,5.07,7.09,6.08l1.37-1.5a15.38,15.38,0,0,0,7.53,1.63c2.52-.07,5,.26,7.41-.78a10.05,10.05,0,0,0,5.67-6.32,12.51,12.51,0,0,1,.88-2.76,9.73,9.73,0,0,1,2.24-2.29,16.76,16.76,0,0,0,5.52-10.23,6.24,6.24,0,0,0-.3-3.51,2.91,2.91,0,0,0-2.81-1.81,12.61,12.61,0,0,0,1.56-4.11,4.33,4.33,0,0,0-1.38-4,6.05,6.05,0,0,0-3.63-.91h-.31c-1.28,0-2.57,0-3.85,0C387.37,169.09,386.75,169.16,386.13,169.17Z" style="fill:#263238"></path><path d="M388.64,176.51c2.35,1.27,5.75,5.3,5.61,17.43-.12,10.05-3.33,13.26-5,14.05s-4.14.67-7.29.27l-.22,4.31c7.67,5.56,9.59,12.33,2.5,11.66-9-.85-16-8.7-16-9.5L368,201.25a4.32,4.32,0,0,1-5.06-1c-2.3-2.65-3-6.58-1.09-8.7s5.19-1.37,6.77.79c0,0,4.16-.1,10.67-4S387.28,181.29,388.64,176.51Z" style="fill:#b16668"></path><path d="M368.66,192.3l-.07,4.85h0a3.45,3.45,0,0,0,3.5-3.4l.08-5.8Z" style="fill:#263238"></path><path d="M393,187.21l-3-1.14a1.53,1.53,0,0,1,2-.95A1.67,1.67,0,0,1,393,187.21Z" style="fill:#263238"></path><path d="M381.35,200.3l4.51.9a2.21,2.21,0,0,1-2.62,1.84A2.42,2.42,0,0,1,381.35,200.3Z" style="fill:#9a4a4d"></path><polygon points="385.25 189.42 385.87 197.84 389.97 196.57 385.25 189.42" style="fill:#9a4a4d"></polygon><path d="M382,208.26c-3.32-.3-10.2-2-11.36-4.62a7,7,0,0,0,2.52,3.33c2.1,1.66,8.72,3.67,8.72,3.67Z" style="fill:#9a4a4d"></path><path d="M381.81,192.38a1.38,1.38,0,1,1-1.37-1.37A1.37,1.37,0,0,1,381.81,192.38Z" style="fill:#263238"></path><circle cx="390.88" cy="191.3" r="1.37" style="fill:#263238"></circle><path d="M363.52,171.67c-4.75,3.3-8,7.55-8.95,18.69-.72,8.51,1.21,14,3.28,16.24s10.89,7.74,14.9,4.41a5.86,5.86,0,0,1-3.48-3.12,18.55,18.55,0,0,1-1.21-5.77s-4.08.06-5.72-1.73-3.33-9.42-3-13.18C359.77,182.8,363.52,171.67,363.52,171.67Z" style="fill:#263238"></path><path d="M368.66,192.3s-.9-7.6,2.46-13,9.72-10,15-10.14c0,0-3.72-2.59-10.16-1.62,0,0-12.39,4.5-9.6,23A5.85,5.85,0,0,1,368.66,192.3Z" style="fill:#F6A091"></path><path d="M362.08,214.91c-5.49,1.41-9.89,2.83-11.72,8.21-1,2.8-2.58,32.31-2.77,37s-.24,29.77-.58,30.59c-.7,1.7-7.73,4.72-10.17,6.23a19.74,19.74,0,0,0-5.72,5.35c-1.09,1.68,2.7,4.38,6.15,4.15,2-.14,9.36-5.09,12-5.33,1.7-.15-1.12,2.94-1.22,5.37-.08,1.76,1.52,2.3,1.93,1.31.52-1.24,4-5.44,5-6.72,1.48-1.76,3.93-5.42,3.93-8.89,0-4.48.59-14.91,2-29.79,1.17-12.48,2.14-21.86,2.14-21.86A37,37,0,0,0,366,227,17.67,17.67,0,0,0,362.08,214.91Z" style="fill:#b16668"></path></g></g><g id="freepik--speech-bubbles--inject-2"><g id="freepik--speech-bubble--inject-2"><g id="freepik--speech-bubble--inject-2"><path d="M433.88,166.3a.52.52,0,0,1-.22-.22L430.89,156v-2.64l8.14-3.18v2.63l-1,2.85,4.84-2.79.29,1.63-2.88,14.71a.62.62,0,0,1-.88.33Z" style="fill:#F6A091"></path><path d="M433.88,166.3a.52.52,0,0,1-.22-.22L430.89,156v-2.64l8.14-3.18v2.63l-1,2.85,4.84-2.79.29,1.63-2.88,14.71a.62.62,0,0,1-.88.33Z" style="opacity:0.30000000000000004"></path><path d="M442.89,152.87l.29,1.63-2.88,14.71a.6.6,0,0,1-1.09.1l-3.13-10.71.36-2Z" style="fill:#F6A091"></path><path d="M460.76,98.78a5.83,5.83,0,0,0-2.63-4.56h0a5.83,5.83,0,0,0-5.27,0l-38.28,21.87a5.83,5.83,0,0,0-2.63,4.56v42.88a5.83,5.83,0,0,0,2.63,4.57h0a5.83,5.83,0,0,0,5.27,0l38.52-22c2.37-1.35,2.39-2.71,2.39-4.39Z" style="fill:#F6A091"></path><path d="M412,163.53a5.83,5.83,0,0,0,2.63,4.57h0a5.9,5.9,0,0,0,4.82.22c-1.24.47-2.18-.24-2.18-1.75V123.69a5.31,5.31,0,0,1,.77-2.59l-5.27-3a5.31,5.31,0,0,0-.77,2.59Z" style="opacity:0.2"></path><path d="M460.68,98c-.31-1.12-1.33-1.47-2.55-.77l-38.28,21.87a5.21,5.21,0,0,0-1.86,2l-5.26-3a5.42,5.42,0,0,1,1.85-2l38.27-21.87a5.91,5.91,0,0,1,5.28,0h0A5.82,5.82,0,0,1,460.68,98Z" style="fill:#fff;opacity:0.5"></path></g><path id="freepik--Key--inject-2" d="M427.36,129.76a4.51,4.51,0,0,1,1.7-3.61c.95-.54,1.71.19,1.71,1.64a4.47,4.47,0,0,1-1.71,3.61C428.12,131.94,427.36,131.21,427.36,129.76Zm-2.56,1.56c0,2.84.86,4.87,2.21,5.72l0,0,.08,0,.15.09.17.07.17.07.21.06.16,0a3,3,0,0,0,1.12,0,2.33,2.33,0,0,0,.36-.08,3,3,0,0,0,.39-.13,5.17,5.17,0,0,0,.72-.34c1.89-1.1,3.57-3.47,4.63-6.25,0-.07.05-.14.07-.21a16.59,16.59,0,0,0,.6-2l3.18-1.83.63-2.63,1.9-1.1,1.54,1.37,1.23-.71,1.12-1.91,1.95-1.17.74.89,2.2-1.28,2.24-4.72v-2.47l-16.47,9.51a7.32,7.32,0,0,0-.58-1.8l-.15-.28c-.11-.19-.22-.36-.34-.53s-.12-.15-.19-.22l-.16-.18-.06,0a2.06,2.06,0,0,0-.4-.33c-.07-.06-.15-.1-.22-.15l-.1,0a3.38,3.38,0,0,0-3.36.27c-2.71,1.57-5,5.76-5.61,10A15.6,15.6,0,0,0,424.8,131.32Z" style="fill:#fafafa"></path><g id="freepik--numbers--inject-2"><path d="M420.74,160a2.9,2.9,0,0,1,.06-.4l2.37-10.81-2.41,1.39c-.12.07-.21,0-.26-.05a1.69,1.69,0,0,1-.08-.62v-.29a2.62,2.62,0,0,1,.08-.71.6.6,0,0,1,.26-.35l3.88-2.24c.06,0,.13.11.21.44a3.57,3.57,0,0,1,.13.92,1,1,0,0,1,0,.24L422.44,159a.83.83,0,0,1-.21.39,2,2,0,0,1-.44.33l-.41.24C421,160.24,420.74,160.25,420.74,160Z" style="fill:#455a64"></path><path d="M426.46,156.72a2.3,2.3,0,0,1,.07-.4l2.36-10.8-2.41,1.39c-.11.07-.2.05-.25-.06a1.44,1.44,0,0,1-.08-.61v-.3a2.2,2.2,0,0,1,.08-.7.62.62,0,0,1,.25-.36l3.89-2.24q.09,0,.21.45a3.93,3.93,0,0,1,.12.91.9.9,0,0,1,0,.24l-2.52,11.49a.83.83,0,0,1-.21.39,1.92,1.92,0,0,1-.43.32l-.42.24C426.68,156.93,426.46,156.94,426.46,156.72Z" style="fill:#455a64"></path><path d="M432.34,153.4c-.38,0-.57-.21-.57-.56a2.56,2.56,0,0,1,.1-.55,5.35,5.35,0,0,1,.25-.74.8.8,0,0,1,.26-.42.86.86,0,0,1,.24,0,1.49,1.49,0,0,0,.48,0,1.62,1.62,0,0,0,.61-.22,1.71,1.71,0,0,0,.69-.88,3.8,3.8,0,0,0,.25-1.45,2.18,2.18,0,0,0-.26-1.29c-.17-.22-.46-.22-.86,0l-1.06.61q-.24.14-.33,0a.84.84,0,0,1-.09-.49l.22-5.26a1.42,1.42,0,0,1,.13-.61.79.79,0,0,1,.34-.36l3-1.73c.12-.07.21,0,.26.05a1.69,1.69,0,0,1,.08.62v.46a1.75,1.75,0,0,1-.08.58.57.57,0,0,1-.26.31l-2,1.13-.11,2.54.17-.09c.81-.47,1.43-.53,1.86-.19s.64,1.22.64,2.62A7.5,7.5,0,0,1,436,150a5.89,5.89,0,0,1-1,1.8,4.52,4.52,0,0,1-1.25,1.1A2.7,2.7,0,0,1,432.34,153.4Z" style="fill:#455a64"></path><path d="M437.5,146.77a1.66,1.66,0,0,1-.08-.62V146a2.54,2.54,0,0,1,.08-.7.53.53,0,0,1,.25-.35l1.92-1.11c.11-.07.2-.05.25.06a1.69,1.69,0,0,1,.08.62v.12a2.54,2.54,0,0,1-.08.7.56.56,0,0,1-.25.35l-1.92,1.11C437.63,146.9,437.55,146.88,437.5,146.77Z" style="fill:#455a64"></path><path d="M441,148.09a5.07,5.07,0,0,1-.1-.92.69.69,0,0,1,0-.28l2.45-6.9a10.11,10.11,0,0,0,.34-1.14,3.84,3.84,0,0,0,.1-.85c0-.4-.08-.66-.24-.77s-.38-.08-.65.07a2,2,0,0,0-.52.45,6.48,6.48,0,0,0-.49.67,1.61,1.61,0,0,1-.29.38c-.17.1-.32,0-.45-.16a1.19,1.19,0,0,1-.2-.66,2.5,2.5,0,0,1,.69-1.56,5.64,5.64,0,0,1,1.52-1.31q1.11-.65,1.71-.12a2.55,2.55,0,0,1,.61,1.95,8.87,8.87,0,0,1-.6,3l-1.95,5.54,2.26-1.31c.13-.07.21,0,.26.06a1.44,1.44,0,0,1,.08.61v.3a2.2,2.2,0,0,1-.08.7.55.55,0,0,1-.26.36l-4,2.32C441.11,148.56,441,148.42,441,148.09Z" style="fill:#455a64"></path><path d="M447.28,143.54a11.44,11.44,0,0,1-.57-4.28,17.77,17.77,0,0,1,.57-4.92,4.17,4.17,0,0,1,1.73-2.6c.77-.45,1.35-.24,1.73.61a11.36,11.36,0,0,1,.57,4.26,17.82,17.82,0,0,1-.57,4.92,4.21,4.21,0,0,1-1.73,2.61C448.23,144.59,447.66,144.39,447.28,143.54Zm2.06-1.95a5.89,5.89,0,0,0,.19-1.34c0-.62.06-1.5.06-2.65s0-2-.06-2.58a3.49,3.49,0,0,0-.19-1.12c-.08-.17-.19-.22-.33-.13a.85.85,0,0,0-.34.52,7.34,7.34,0,0,0-.19,1.34c0,.62-.06,1.51-.06,2.65s0,2,.06,2.58a4.18,4.18,0,0,0,.19,1.12c.08.17.2.22.34.14A.9.9,0,0,0,449.34,141.59Z" style="fill:#455a64"></path><path d="M453.61,141.34a1.83,1.83,0,0,1-.91.06c-.25-.06-.37-.26-.37-.6a2.66,2.66,0,0,1,.09-.54,6.41,6.41,0,0,1,.21-.7.74.74,0,0,1,.25-.39.38.38,0,0,1,.24,0,2,2,0,0,0,.52.1,1.23,1.23,0,0,0,.57-.19,1.9,1.9,0,0,0,.76-.88,3.24,3.24,0,0,0,.28-1.4,1.67,1.67,0,0,0-.29-1.16c-.2-.18-.51-.14-.95.11l-.39.22c-.12.07-.21.05-.26-.05a1.69,1.69,0,0,1-.08-.62V135a2.54,2.54,0,0,1,.08-.7.59.59,0,0,1,.26-.36l.29-.17a2,2,0,0,0,.79-.85,2.49,2.49,0,0,0,.29-1.21,1.46,1.46,0,0,0-.21-.91c-.14-.16-.35-.17-.62,0a1.58,1.58,0,0,0-.48.39,3.9,3.9,0,0,0-.34.46,1,1,0,0,1-.22.28c-.11.07-.23,0-.36-.26a1.54,1.54,0,0,1-.2-.73,2,2,0,0,1,.59-1.27,5.5,5.5,0,0,1,1.41-1.15c.65-.37,1.16-.39,1.55-.07a2.44,2.44,0,0,1,.57,1.88,5.2,5.2,0,0,1-.28,1.71,4.29,4.29,0,0,1-.77,1.42v.07a1.08,1.08,0,0,1,1,.63,3.73,3.73,0,0,1,.33,1.72,7.08,7.08,0,0,1-.65,3.06,4.34,4.34,0,0,1-1.7,2A5.08,5.08,0,0,1,453.61,141.34Z" style="fill:#455a64"></path></g></g></g></svg>
